<?xml version="1.0" encoding="UTF-8" standalone="no"?>
<!DOCTYPE svg PUBLIC "-//W3C//DTD SVG 1.1//EN" "http://www.w3.org/Graphics/SVG/1.1/DTD/svg11.dtd">
<svg width="100%" height="100%" viewBox="0 0 5442 2106" version="1.1" xmlns="http://www.w3.org/2000/svg" xmlns:xlink="http://www.w3.org/1999/xlink" xml:space="preserve" xmlns:serif="http://www.serif.com/" style="fill-rule:evenodd;clip-rule:evenodd;stroke-linejoin:round;stroke-miterlimit:2;">
    <g id="Artboard1" transform="matrix(0.782826,0,0,0.391802,0,0)">
        <rect x="0" y="0" width="6950.79" height="5374.49" style="fill:none;"/>
        <g transform="matrix(1.27742,0,0,2.92825,-1045.97,-7014.79)">
            <g transform="matrix(1.07093,0,0,1,-238.823,0)">
                <text x="3366.99px" y="3144.55px" style="font-family:'Impact', sans-serif;font-stretch:condensed;font-size:833.333px;fill:rgb(71,99,166);stroke:black;stroke-width:15.02px;">tone</text>
            </g>
            <g transform="matrix(1.07093,0,0,1,-238.823,0)">
                <text x="3366.99px" y="3977.89px" style="font-family:'Impact', sans-serif;font-stretch:condensed;font-size:833.333px;fill:rgb(142,120,120);stroke:black;stroke-width:15.02px;">mapper</text>
            </g>
        </g>
        <g transform="matrix(1.27742,0,0,2.55231,-272.551,-4633.67)">
            <g transform="matrix(1,0,0,0.814244,-1063.61,17.1911)">
                <path d="M1737.16,3266.88L1734.58,3893.87C2239.26,3958.2 2117.72,4276.72 2310.55,4734.93C2660.89,4771.87 2970.32,4752.85 3251.32,4694.9C3171.35,4127.87 3163.01,3874.99 3184.84,3275.11L1737.16,3266.88Z" style="fill:url(#_Linear1);stroke:black;stroke-width:22.85px;stroke-linecap:round;stroke-miterlimit:1.5;"/>
            </g>
            <g transform="matrix(0.811729,0,0,0.84743,-528.752,-201.871)">
                <path d="M1734.58,3766.36C1734.58,3741.42 1713.45,3721.18 1687.41,3721.18L1613.38,3721.18C1587.35,3721.18 1566.21,3741.42 1566.21,3766.36L1566.21,3864.66C1566.21,3889.6 1587.35,3909.84 1613.38,3909.84L1687.41,3909.84C1713.45,3909.84 1734.58,3889.6 1734.58,3864.66L1734.58,3766.36Z" style="fill:white;stroke:black;stroke-width:25.11px;stroke-linecap:round;stroke-miterlimit:1.5;"/>
            </g>
            <g transform="matrix(0.811729,0,0,0.84743,644.248,-201.871)">
                <path d="M1734.58,3766.36C1734.58,3741.42 1713.45,3721.18 1687.41,3721.18L1613.38,3721.18C1587.35,3721.18 1566.21,3741.42 1566.21,3766.36L1566.21,3864.66C1566.21,3889.6 1587.35,3909.84 1613.38,3909.84L1687.41,3909.84C1713.45,3909.84 1734.58,3889.6 1734.58,3864.66L1734.58,3766.36Z" style="fill:white;stroke:black;stroke-width:25.11px;stroke-linecap:round;stroke-miterlimit:1.5;"/>
            </g>
            <g transform="matrix(0.811443,-0.0215515,0.0224993,0.847131,563.873,64.8375)">
                <path d="M1734.58,3766.36C1734.58,3741.42 1713.45,3721.18 1687.41,3721.18L1613.38,3721.18C1587.35,3721.18 1566.21,3741.42 1566.21,3766.36L1566.21,3864.66C1566.21,3889.6 1587.35,3909.84 1613.38,3909.84L1687.41,3909.84C1713.45,3909.84 1734.58,3889.6 1734.58,3864.66L1734.58,3766.36Z" style="fill:white;stroke:black;stroke-width:25.11px;stroke-linecap:round;stroke-miterlimit:1.5;"/>
            </g>
            <g transform="matrix(0.809523,-0.0598009,0.062431,0.845127,423.682,365.611)">
                <path d="M1734.58,3766.36C1734.58,3741.42 1713.45,3721.18 1687.41,3721.18L1613.38,3721.18C1587.35,3721.18 1566.21,3741.42 1566.21,3766.36L1566.21,3864.66C1566.21,3889.6 1587.35,3909.84 1613.38,3909.84L1687.41,3909.84C1713.45,3909.84 1734.58,3889.6 1734.58,3864.66L1734.58,3766.36Z" style="fill:white;stroke:black;stroke-width:25.11px;stroke-linecap:round;stroke-miterlimit:1.5;"/>
            </g>
            <g transform="matrix(0.804673,-0.106797,0.111494,0.840063,275.486,692.494)">
                <path d="M1734.58,3766.36C1734.58,3741.42 1713.45,3721.18 1687.41,3721.18L1613.38,3721.18C1587.35,3721.18 1566.21,3741.42 1566.21,3766.36L1566.21,3864.66C1566.21,3889.6 1587.35,3909.84 1613.38,3909.84L1687.41,3909.84C1713.45,3909.84 1734.58,3889.6 1734.58,3864.66L1734.58,3766.36Z" style="fill:white;stroke:black;stroke-width:25.11px;stroke-linecap:round;stroke-miterlimit:1.5;"/>
            </g>
            <g transform="matrix(1,0,0,1,-1043.61,-269.653)">
                <path d="M3497.24,2378.65L3570.79,2377.28C3570.79,2377.28 3681.33,2412.22 3682.25,2736.47C3683.16,3060.73 3570.79,3096.85 3570.79,3096.85L3497.24,3096.85L3497.24,2378.65Z" style="fill:rgb(50,50,50);stroke:black;stroke-width:20.83px;stroke-linecap:round;stroke-miterlimit:1.5;"/>
            </g>
            <g transform="matrix(0.585772,0.000381899,-0.000622092,0.954189,-337.813,-159.135)">
                <ellipse cx="1508.23" cy="2751.39" rx="258.79" ry="651.133" style="fill:rgb(50,50,50);stroke:black;stroke-width:26.31px;stroke-linecap:round;stroke-miterlimit:1.5;"/>
            </g>
            <g transform="matrix(0.764777,0.000498603,-0.000622092,0.954189,-710.469,-159.28)">
                <path d="M1508.23,3402.52C1365.4,3402.52 1249.44,3110.76 1249.44,2751.39C1249.44,2392.02 1365.4,2100.26 1508.23,2100.26L1642.48,2100.15C1533.08,2100.15 1444.26,2391.92 1444.26,2751.29C1444.26,3110.66 1533.08,3402.42 1642.48,3402.42C1642.48,3402.42 1600.51,3402.52 1508.23,3402.52Z" style="fill:rgb(77,77,77);stroke:black;stroke-width:24.09px;stroke-linecap:round;stroke-miterlimit:1.5;"/>
            </g>
            <g transform="matrix(-0.585772,0.000381899,0.000622092,0.954189,3088.36,-159.135)">
                <ellipse cx="1508.23" cy="2751.39" rx="258.79" ry="651.133" style="fill:rgb(50,50,50);stroke:black;stroke-width:26.31px;stroke-linecap:round;stroke-miterlimit:1.5;"/>
            </g>
            <g transform="matrix(-0.764777,0.000498603,0.000622092,0.954189,3461.01,-159.28)">
                <path d="M1508.23,3402.52C1365.4,3402.52 1249.44,3110.76 1249.44,2751.39C1249.44,2392.02 1365.4,2100.26 1508.23,2100.26L1642.48,2100.15C1533.08,2100.15 1444.26,2391.92 1444.26,2751.29C1444.26,3110.66 1533.08,3402.42 1642.48,3402.42C1642.48,3402.42 1600.51,3402.52 1508.23,3402.52Z" style="fill:rgb(77,77,77);stroke:black;stroke-width:24.09px;stroke-linecap:round;stroke-miterlimit:1.5;"/>
            </g>
            <g transform="matrix(1,0,0,1,-1073.61,-269.653)">
                <path d="M1681.26,2157.4L3216.5,2157.4C3340.61,2157.25 3385.68,2399.02 3384.79,2736.34C3383.79,3119.16 3337.99,3317.34 3217.26,3315.54L1680.51,3315.54C1559.78,3317.34 1513.97,3119.16 1512.97,2736.34C1512.09,2399.02 1557.15,2157.25 1681.26,2157.4Z" style="fill:url(#_Linear2);"/>
            </g>
            <g transform="matrix(1,0,0,1,-1073.61,-269.653)">
                <path d="M1681.26,2157.4L3216.5,2157.4C3340.61,2157.25 3385.68,2399.02 3384.79,2736.34C3383.79,3119.16 3337.99,3317.34 3217.26,3315.54L1680.51,3315.54C1559.78,3317.34 1513.97,3119.16 1512.97,2736.34C1512.09,2399.02 1557.15,2157.25 1681.26,2157.4Z" style="fill:none;"/>
                <clipPath id="_clip3">
                    <path d="M1681.26,2157.4L3216.5,2157.4C3340.61,2157.25 3385.68,2399.02 3384.79,2736.34C3383.79,3119.16 3337.99,3317.34 3217.26,3315.54L1680.51,3315.54C1559.78,3317.34 1513.97,3119.16 1512.97,2736.34C1512.09,2399.02 1557.15,2157.25 1681.26,2157.4Z"/>
                </clipPath>
                <g clip-path="url(#_clip3)">
                    <g transform="matrix(1,0,0,1,10,0)">
                        <path d="M3096.99,2992.65L3422.69,2992.65L3422.69,3111.95L1364.93,3111.95L1364.93,2992.65L2269.19,2992.65C2256.93,2988.79 2245.84,2982.6 2235.93,2974.06C2222.85,2962.8 2214.72,2949.91 2211.52,2935.4C2208.33,2920.89 2206.73,2886.78 2206.73,2833.07L2206.73,2558.81L2168.82,2558.81L2168.82,2473.36L2206.73,2473.36L2206.73,2388.32L2383.21,2388.32L2383.21,2473.36L2430.71,2473.36L2430.71,2558.81L2383.21,2558.81L2383.21,2847.71C2383.21,2883.25 2385.18,2903.05 2389.1,2907.12C2393.02,2911.19 2409.36,2913.22 2438.12,2913.22L2438.12,2992.65L2469.49,2992.65L2469.49,2460.34L2643.36,2460.34L2640.31,2511.61C2653.97,2491.27 2670.24,2476.01 2689.12,2465.84C2708,2455.66 2729.5,2450.58 2753.61,2450.58C2800.68,2450.58 2837.71,2470.92 2864.73,2511.61C2879.55,2491.27 2896.25,2476.01 2914.84,2465.84C2933.44,2455.66 2954.06,2450.58 2976.72,2450.58C3006.64,2450.58 3031.41,2457.36 3051.02,2470.92C3070.63,2484.49 3083.19,2501.1 3088.71,2520.77C3094.23,2540.43 3096.99,2572.38 3096.99,2616.59L3096.99,2992.65ZM2926.17,2992.65L2868.22,2992.65L2868.22,2648.33C2868.22,2601.95 2870.03,2573.33 2873.66,2562.47C2877.3,2551.62 2885.36,2546.2 2897.85,2546.2C2910.05,2546.2 2917.82,2551.69 2921.16,2562.68C2924.5,2573.66 2926.17,2602.22 2926.17,2648.33L2926.17,2992.65ZM2697.4,2992.65L2640.31,2992.65L2640.31,2625.95C2640.31,2599.91 2640.6,2582.89 2641.18,2574.89C2641.77,2566.88 2644.82,2560.1 2650.34,2554.54C2655.86,2548.98 2662.54,2546.2 2670.38,2546.2C2682.87,2546.2 2690.5,2551.49 2693.26,2562.07C2696.02,2572.65 2697.4,2604.39 2697.4,2657.28L2697.4,2992.65Z" style="fill:white;stroke:black;stroke-width:20.83px;stroke-linecap:round;stroke-miterlimit:1.5;"/>
                    </g>
                </g>
            </g>
            <g transform="matrix(1,0,0,1,-1073.61,-269.653)">
                <path d="M1681.26,2157.4L3216.5,2157.4C3340.61,2157.25 3385.68,2399.02 3384.79,2736.34C3383.79,3119.16 3337.99,3317.34 3217.26,3315.54L1680.51,3315.54C1559.78,3317.34 1513.97,3119.16 1512.97,2736.34C1512.09,2399.02 1557.15,2157.25 1681.26,2157.4Z" style="fill:none;stroke:black;stroke-width:20.83px;stroke-linecap:round;stroke-miterlimit:1.5;"/>
            </g>
        </g>
    </g>
    <defs>
        <linearGradient id="_Linear1" x1="0" y1="0" x2="1" y2="0" gradientUnits="userSpaceOnUse" gradientTransform="matrix(4.73653e-14,950.003,-773.534,5.81709e-14,1734.58,3701.98)"><stop offset="0" style="stop-color:rgb(51,44,44);stop-opacity:1"/><stop offset="0.71" style="stop-color:rgb(215,182,182);stop-opacity:1"/><stop offset="0.9" style="stop-color:rgb(206,174,174);stop-opacity:1"/><stop offset="0.96" style="stop-color:rgb(179,150,150);stop-opacity:1"/><stop offset="1" style="stop-color:rgb(145,120,120);stop-opacity:1"/></linearGradient>
        <linearGradient id="_Linear2" x1="0" y1="0" x2="1" y2="0" gradientUnits="userSpaceOnUse" gradientTransform="matrix(7.09164e-14,-1158.15,1158.15,7.09164e-14,1512.96,3315.55)"><stop offset="0" style="stop-color:rgb(36,55,101);stop-opacity:1"/><stop offset="0.57" style="stop-color:rgb(47,69,121);stop-opacity:1"/><stop offset="0.79" style="stop-color:rgb(69,97,163);stop-opacity:1"/><stop offset="1" style="stop-color:rgb(90,124,202);stop-opacity:1"/></linearGradient>
    </defs>
</svg>
